<?xml version="1.0" encoding="utf-8"?>
<svg viewBox="-74.83 -107.76 1192.73 834.942" xmlns="http://www.w3.org/2000/svg">
  <circle cx="458.32136" cy="74.18162" r="26.70075" transform="matrix(1.502895, 0, 0, 1.426973, -70.001053, -99.352051)" style="fill: rgb(236, 239, 244);"/>
  <path d="M 931.168 606.724 C 990.815 563.588 1019.304 491.103 1001.471 421.957 C 1001.027 420.238 1000.558 418.525 1000.066 416.815 C 988.243 375.769 958.988 336.761 916.354 323.645 C 880.556 312.633 841.481 321.1 804.136 316.722 C 730.821 308.125 673.982 251.802 633.99 192.834 C 593.997 133.864 563.261 67.855 510.12 19.137 C 422.523 -61.167 279.633 -78.456 171.024 -26.185 C 62.419 26.087 -6.76 142.056 -3.81 257.633 C -0.861 373.211 71.402 483.712 176.348 542.339 C 214.902 563.877 259.49 579.133 303.867 573.795 C 342.37 569.163 377.356 549.517 415.68 543.686 C 475.932 534.516 535.801 560.382 587.915 590.525 C 640.03 620.667 690.367 656.393 749.588 670.367 C 807.092 683.936 878.332 644.936 931.168 606.724 Z" style="fill: rgb(236, 239, 244);"/>
  <path d="M 844.399 -20.412 C 843.092 -21.24 841.769 -22.025 840.461 -22.824 C 802.665 -45.775 762.154 -64.423 719.764 -78.377 L 709.934 50.365 L 647.625 50.365 L 647.625 -97.169 C 643.702 -97.94 639.75 -98.668 635.797 -99.353 L 635.797 50.365 L 561.749 50.365 C 476.862 50.365 408.049 -14.973 408.049 -95.571 L 408.049 -95.571 C 404.082 -94.758 400.145 -93.887 396.207 -92.959 L 396.207 50.365 L 335.895 50.365 L 326.533 -72.397 C 282.969 -56.533 241.615 -35.675 203.385 -10.281 C 202.724 -9.853 202.062 -9.411 201.415 -8.983 C 198.093 -6.771 194.819 -4.516 191.557 -2.232 L 191.557 488.918 L 369.304 488.918 L 366.163 447.606 L 348.88 220.788 L 696.935 220.788 L 679.652 447.606 L 676.51 488.918 L 852.289 488.918 L 852.289 -15.447 C 849.674 -17.13 847.043 -18.786 844.399 -20.412 Z M 396.207 183.33 L 346.025 183.33 L 336.752 61.611 L 396.207 61.611 Z M 635.798 183.33 L 551.515 183.33 L 551.515 180.919 C 551.515 176.043 547.347 172.093 542.213 172.101 L 505.571 172.101 C 500.44 172.099 496.282 176.047 496.283 180.919 L 496.283 183.33 L 408.049 183.33 L 408.049 61.611 L 635.798 61.611 Z M 647.625 183.33 L 647.625 61.611 L 709.078 61.611 L 699.805 183.33 Z" style="fill: rgb(103, 129, 154);"/>
  <path d="M -70.001 520.369 C -56.944 535.058 -42.823 548.863 -27.74 561.68 L 1070.245 563.108 C 1085.329 550.289 1099.452 536.484 1112.506 521.796 Z" style="fill: rgb(129, 161, 193);"/>
  <path d="M 674.578 388.088 L 674.578 510.387 C 674.58 513.631 677.351 516.261 680.768 516.264 L 871.643 516.264 C 875.06 516.261 877.832 513.631 877.834 510.387 L 877.834 388.088 C 877.826 384.848 875.059 382.221 871.643 382.217 L 680.768 382.217 C 677.354 382.221 674.587 384.848 674.578 388.088 Z" style="fill: rgb(103, 129, 154);"/>
  <path d="M 679.056 389.612 L 679.056 508.878 C 679.06 510.611 680.539 512.017 682.365 512.019 L 870.053 512.019 C 871.88 512.017 873.359 510.611 873.362 508.878 L 873.362 389.612 C 873.362 387.874 871.882 386.466 870.053 386.463 L 682.365 386.463 C 680.536 386.466 679.056 387.874 679.056 389.612 Z" fill="#88c0d0" style=""/>
  <path d="M 670.586 534.239 C 671.294 535.08 672.37 535.57 673.507 535.566 L 877.888 535.566 C 880.273 535.562 882.053 533.479 881.565 531.262 L 878.392 516.953 C 878.125 515.767 877.243 514.79 876.051 514.359 C 875.626 514.2 875.172 514.119 874.716 514.12 L 676.667 514.12 C 676.212 514.119 675.758 514.2 675.332 514.359 C 674.139 514.79 673.257 515.767 672.992 516.953 L 669.817 531.262 C 669.589 532.313 669.873 533.407 670.586 534.239 Z" style="fill: rgb(103, 129, 154);"/>
  <rect x="-869.769" y="-519.314" width="6.047" height="3.895" rx="0.488" transform="matrix(-1, 0, 0, -1, 0, 0)" style="fill: rgb(129, 161, 193);"/>
  <rect x="-857.678" y="-519.314" width="6.047" height="3.895" rx="0.488" transform="matrix(-1, 0, 0, -1, 0, 0)" style="fill: rgb(129, 161, 193);"/>
  <rect x="-845.578" y="-519.314" width="6.047" height="3.895" rx="0.488" transform="matrix(-1, 0, 0, -1, 0, 0)" style="fill: rgb(129, 161, 193);"/>
  <rect x="-833.488" y="-519.314" width="6.047" height="3.895" rx="0.488" transform="matrix(-1, 0, 0, -1, 0, 0)" style="fill: rgb(129, 161, 193);"/>
  <rect x="-821.397" y="-519.314" width="6.047" height="3.895" rx="0.488" transform="matrix(-1, 0, 0, -1, 0, 0)" style="fill: rgb(129, 161, 193);"/>
  <rect x="-809.303" y="-519.314" width="6.047" height="3.895" rx="0.488" transform="matrix(-1, 0, 0, -1, 0, 0)" style="fill: rgb(129, 161, 193);"/>
  <rect x="-736.751" y="-519.314" width="6.047" height="3.895" rx="0.488" transform="matrix(-1, 0, 0, -1, 0, 0)" style="fill: rgb(129, 161, 193);"/>
  <rect x="-724.657" y="-519.314" width="6.047" height="3.895" rx="0.488" transform="matrix(-1, 0, 0, -1, 0, 0)" style="fill: rgb(129, 161, 193);"/>
  <rect x="-712.567" y="-519.314" width="6.047" height="3.895" rx="0.488" transform="matrix(-1, 0, 0, -1, 0, 0)" style="fill: rgb(129, 161, 193);"/>
  <rect x="-700.473" y="-519.314" width="6.047" height="3.895" rx="0.488" transform="matrix(-1, 0, 0, -1, 0, 0)" style="fill: rgb(129, 161, 193);"/>
  <rect x="-477.193" y="-314.712" width="1.835" height="1.182" rx="0.488" transform="matrix(-1, 0, 0, -1, 0, 0)" fill="#3f3d56" style=""/>
  <rect x="-869.914" y="-525.806" width="6.047" height="3.895" rx="0.488" transform="matrix(-1, 0, 0, -1, 0, 0)" style="fill: rgb(129, 161, 193);"/>
  <rect x="-857.817" y="-525.806" width="6.047" height="3.895" rx="0.488" transform="matrix(-1, 0, 0, -1, 0, 0)" style="fill: rgb(129, 161, 193);"/>
  <rect x="-845.723" y="-525.806" width="6.047" height="3.895" rx="0.488" transform="matrix(-1, 0, 0, -1, 0, 0)" style="fill: rgb(129, 161, 193);"/>
  <rect x="-833.633" y="-525.806" width="6.047" height="3.895" rx="0.488" transform="matrix(-1, 0, 0, -1, 0, 0)" style="fill: rgb(129, 161, 193);"/>
  <rect x="-821.542" y="-525.806" width="6.047" height="3.895" rx="0.488" transform="matrix(-1, 0, 0, -1, 0, 0)" style="fill: rgb(129, 161, 193);"/>
  <rect x="-809.449" y="-525.806" width="6.047" height="3.895" rx="0.488" transform="matrix(-1, 0, 0, -1, 0, 0)" style="fill: rgb(129, 161, 193);"/>
  <rect x="-736.893" y="-525.806" width="6.047" height="3.895" rx="0.488" transform="matrix(-1, 0, 0, -1, 0, 0)" style="fill: rgb(129, 161, 193);"/>
  <rect x="-724.802" y="-525.806" width="6.047" height="3.895" rx="0.488" transform="matrix(-1, 0, 0, -1, 0, 0)" style="fill: rgb(129, 161, 193);"/>
  <rect x="-712.712" y="-525.806" width="6.047" height="3.895" rx="0.488" transform="matrix(-1, 0, 0, -1, 0, 0)" style="fill: rgb(129, 161, 193);"/>
  <rect x="-700.621" y="-525.806" width="6.047" height="3.895" rx="0.488" transform="matrix(-1, 0, 0, -1, 0, 0)" style="fill: rgb(129, 161, 193);"/>
  <rect x="-477.237" y="-316.682" width="1.835" height="1.182" rx="0.488" transform="matrix(-1, 0, 0, -1, 0, 0)" fill="#3f3d56" style=""/>
  <rect x="-811.864" y="-533.596" width="48.368" height="3.895" rx="0.488" transform="matrix(-1, 0, 0, -1, 0, 0)" style="fill: rgb(129, 161, 193);"/>
  <rect x="704.939" y="412.556" width="8.965" height="4.454" rx="1.561" style="fill: rgb(236, 239, 244);"/>
  <rect x="753.817" y="412.556" width="8.965" height="4.454" rx="1.561" style="fill: rgb(236, 239, 244);"/>
  <rect x="767.666" y="412.556" width="8.965" height="4.454" rx="1.561" style="fill: rgb(236, 239, 244);"/>
  <rect x="718.234" y="412.184" width="31.255" height="4.454" rx="1.561" style="fill: rgb(236, 239, 244);"/>
  <rect x="783.404" y="412.184" width="31.255" height="4.454" rx="1.561" style="fill: rgb(236, 239, 244);"/>
  <rect x="717.973" y="422.61" width="8.965" height="4.454" rx="1.561" style="fill: rgb(236, 239, 244);"/>
  <rect x="766.851" y="422.61" width="8.965" height="4.454" rx="1.561" fill="#fff" style=""/>
  <rect x="780.7" y="422.61" width="8.965" height="4.454" rx="1.561" style="fill: rgb(236, 239, 244);"/>
  <rect x="731.268" y="422.239" width="31.255" height="4.454" rx="1.561" style="fill: rgb(236, 239, 244);"/>
  <rect x="796.438" y="422.239" width="31.255" height="4.454" rx="1.561" style="fill: rgb(236, 239, 244);"/>
  <rect x="731.008" y="432.666" width="8.965" height="4.454" rx="1.561" style="fill: rgb(236, 239, 244);"/>
  <rect x="779.884" y="432.666" width="8.965" height="4.454" rx="1.561" style="fill: rgb(236, 239, 244);"/>
  <rect x="793.735" y="432.666" width="8.965" height="4.454" rx="1.561" style="fill: rgb(236, 239, 244);"/>
  <rect x="744.302" y="432.294" width="31.255" height="4.454" rx="1.561" style="fill: rgb(236, 239, 244);"/>
  <rect x="809.473" y="432.294" width="31.255" height="4.454" rx="1.561" style="fill: rgb(236, 239, 244);"/>
  <rect x="744.042" y="442.721" width="8.965" height="4.454" rx="1.561" style="fill: rgb(236, 239, 244);"/>
  <rect x="792.92" y="442.721" width="8.965" height="4.454" rx="1.561" style="fill: rgb(236, 239, 244);"/>
  <rect x="806.769" y="442.721" width="8.965" height="4.454" rx="1.561" style="fill: rgb(236, 239, 244);"/>
  <rect x="757.337" y="442.35" width="31.255" height="4.454" rx="1.561" style="fill: rgb(236, 239, 244);"/>
  <rect x="753.817" y="482.706" width="8.965" height="4.454" rx="1.561" style="fill: rgb(236, 239, 244);"/>
  <rect x="767.666" y="482.706" width="8.965" height="4.454" rx="1.561" style="fill: rgb(236, 239, 244);"/>
  <rect x="783.404" y="483.078" width="31.255" height="4.454" rx="1.561" style="fill: rgb(236, 239, 244);"/>
  <rect x="704.939" y="482.706" width="8.965" height="4.454" rx="1.561" style="fill: rgb(236, 239, 244);"/>
  <rect x="718.234" y="483.078" width="31.255" height="4.454" rx="1.561" style="fill: rgb(236, 239, 244);"/>
  <rect x="717.973" y="472.651" width="8.965" height="4.454" rx="1.561" style="fill: rgb(236, 239, 244);"/>
  <rect x="766.851" y="472.651" width="8.965" height="4.454" rx="1.561" style="fill: rgb(236, 239, 244);"/>
  <rect x="780.7" y="472.651" width="8.965" height="4.454" rx="1.561" style="fill: rgb(236, 239, 244);"/>
  <rect x="731.268" y="473.021" width="31.255" height="4.454" rx="1.561" style="fill: rgb(236, 239, 244);"/>
  <rect x="731.008" y="462.595" width="8.965" height="4.454" rx="1.561" style="fill: rgb(236, 239, 244);"/>
  <rect x="779.884" y="462.595" width="8.965" height="4.454" rx="1.561" style="fill: rgb(236, 239, 244);"/>
  <rect x="793.735" y="462.595" width="8.965" height="4.454" rx="1.561" style="fill: rgb(236, 239, 244);"/>
  <rect x="744.302" y="462.967" width="31.255" height="4.454" rx="1.561" style="fill: rgb(236, 239, 244);"/>
  <rect x="744.042" y="452.539" width="8.965" height="4.454" rx="1.561" style="fill: rgb(236, 239, 244);"/>
  <rect x="792.92" y="452.539" width="8.965" height="4.454" rx="1.561" style="fill: rgb(236, 239, 244);"/>
  <rect x="806.769" y="452.539" width="8.965" height="4.454" rx="1.561" style="fill: rgb(236, 239, 244);"/>
  <rect x="757.337" y="452.912" width="31.255" height="4.454" rx="1.561" style="fill: rgb(236, 239, 244);"/>
  <path d="M 688.837 600.552 L 668.774 570.441 L 731.749 522.774 L 757.741 495.433 C 772.542 479.864 799.531 485.262 806.461 505.177 L 806.461 505.177 C 811.332 519.172 803.641 534.316 789.073 539.41 L 747.97 553.788 Z" fill="#ffb6b6" style=""/>
  <path d="M 218.089 382.224 L 218.089 528.574 L 326.072 528.574 L 326.072 382.224 C 326.076 380.063 324.594 378.151 322.42 377.515 C 321.921 377.358 321.397 377.281 320.873 377.286 L 223.304 377.286 C 220.428 377.281 218.092 379.494 218.089 382.224 Z M 260.23 432.511 C 260.313 424.084 269.97 418.904 277.614 423.184 C 281.095 425.134 283.247 428.673 283.285 432.511 L 283.285 449.491 C 283.238 457.917 273.605 463.136 265.943 458.886 C 262.422 456.934 260.252 453.361 260.23 449.491 Z" style="fill: rgb(103, 129, 154);"/>
  <path d="M 217.758 523.894 L 217.758 538.006 C 217.763 539.527 219.056 540.762 220.659 540.775 L 323.502 540.775 C 325.108 540.767 326.403 539.531 326.403 538.006 L 326.403 523.894 Z" fill="#3f3d56" style=""/>
  <path d="M 48.217 161.728 L 48.217 428.942 C 48.223 436.033 54.275 441.779 61.744 441.784 L 478.796 441.784 C 486.263 441.779 492.317 436.033 492.322 428.942 L 492.322 161.728 C 492.304 154.645 486.257 148.908 478.796 148.899 L 61.744 148.899 C 54.281 148.908 48.235 154.645 48.217 161.728 Z" style="fill: rgb(103, 129, 154);"/>
  <path d="M 58.001 165.052 L 58.001 425.647 C 58.007 429.434 61.24 432.503 65.23 432.511 L 475.325 432.511 C 479.314 432.503 482.546 429.434 482.554 425.647 L 482.554 165.052 C 482.554 161.259 479.319 158.184 475.325 158.174 L 65.23 158.174 C 61.235 158.184 58.001 161.259 58.001 165.052 Z" fill="#fff" style=""/>
  <path d="M 134.107 539.819 C 134.953 540.825 136.237 541.41 137.595 541.402 L 381.574 541.402 C 384.421 541.398 386.546 538.912 385.962 536.265 L 382.175 519.185 C 381.856 517.769 380.804 516.603 379.379 516.088 C 378.872 515.899 378.333 515.802 377.787 515.802 L 141.366 515.802 C 140.821 515.802 140.281 515.899 139.774 516.088 C 138.349 516.603 137.296 517.769 136.978 519.185 L 133.191 536.265 C 132.918 537.52 133.254 538.825 134.107 539.819 Z" style="fill: rgb(103, 129, 154);"/>
  <path d="M 462.015 194.072 L 78.291 194.072 C 77.117 194.049 76.409 192.825 77.021 191.87 C 77.292 191.448 77.772 191.186 78.291 191.174 L 462.015 191.174 C 463.19 191.199 463.897 192.422 463.286 193.375 C 463.016 193.8 462.537 194.06 462.015 194.072 Z" style="fill: rgb(103, 129, 154);"/>
  <ellipse cx="104.411" cy="175.097" rx="8.943" ry="8.681" style="fill: rgb(103, 129, 154);"/>
  <ellipse cx="135.305" cy="175.097" rx="8.943" ry="8.681" style="fill: rgb(103, 129, 154);"/>
  <ellipse cx="166.199" cy="175.097" rx="8.943" ry="8.681" style="fill: rgb(103, 129, 154);"/>
  <path d="M 443.412 168.563 L 421.471 168.563 C 420.191 168.591 419.425 169.922 420.091 170.959 C 420.384 171.419 420.905 171.704 421.471 171.716 L 443.412 171.716 C 444.69 171.7 445.47 170.374 444.815 169.332 C 444.52 168.861 443.99 168.571 443.412 168.563 Z" style="fill: rgb(103, 129, 154);"/>
  <path d="M 443.412 174.484 L 421.471 174.484 C 420.191 174.511 419.424 175.843 420.087 176.88 C 420.382 177.34 420.904 177.628 421.471 177.638 L 443.412 177.638 C 444.69 177.624 445.473 176.302 444.82 175.256 C 444.524 174.784 443.991 174.492 443.412 174.484 Z" style="fill: rgb(103, 129, 154);"/>
  <path d="M 443.412 180.405 L 421.471 180.405 C 420.191 180.434 419.425 181.767 420.091 182.804 C 420.384 183.263 420.905 183.548 421.471 183.559 L 443.412 183.559 C 444.69 183.543 445.47 182.218 444.815 181.176 C 444.52 180.707 443.99 180.414 443.412 180.405 Z" style="fill: rgb(103, 129, 154);"/>
  <path d="M 972.4 530.088 C 973.759 533.842 977.512 536.339 981.692 536.267 L 1021.507 535.295 C 1025.723 535.217 1029.382 532.513 1030.497 528.649 L 1036.129 471.444 C 1038.129 472.305 1040.306 472.73 1042.498 472.689 C 1053.674 472.422 1060.353 460.771 1054.524 451.715 C 1051.816 447.512 1046.956 445.001 1041.771 445.125 C 1040.894 445.122 1040.018 445.206 1039.161 445.382 C 1037.275 443.445 1034.613 442.355 1031.836 442.38 L 970.592 443.882 C 970.084 443.901 969.579 443.96 969.083 444.06 C 963.379 445.07 959.928 450.627 961.758 455.854 Z M 1037.285 467.561 L 1041.294 453.93 C 1041.75 452.355 1041.761 450.694 1041.325 449.115 C 1041.519 449.114 1041.692 449.026 1041.885 449.026 C 1049.879 448.87 1055.053 456.987 1051.201 463.64 C 1049.422 466.708 1046.062 468.651 1042.372 468.744 C 1040.595 468.796 1038.836 468.388 1037.285 467.561 Z" style="fill: rgb(103, 129, 154);"/>
  <path d="M 969.083 444.06 C 970.386 451.144 985.056 456.124 1002.696 455.258 C 1018.915 454.548 1032.179 449.141 1034.608 442.733 C 1033.709 442.48 1032.773 442.36 1031.836 442.38 L 970.592 443.882 C 970.084 443.901 969.579 443.96 969.083 444.06 Z" style="fill: rgb(129, 161, 193);"/>
  <path d="M 1005.928 498.653 C 1006.008 498.634 1006.086 498.602 1006.155 498.559 L 1014.802 493.185 C 1015.255 492.904 1015.255 492.274 1014.802 491.993 L 1005.816 486.403 C 1005.333 486.101 1004.685 486.407 1004.652 486.953 C 1004.634 487.21 1004.763 487.456 1004.99 487.596 L 1013.018 492.588 L 1005.333 497.364 C 1004.849 497.666 1004.888 498.351 1005.406 498.6 C 1005.567 498.677 1005.752 498.695 1005.928 498.653 Z" style="fill: rgb(163, 190, 140);"/>
  <path d="M 992.272 499.252 C 992.832 499.116 993.028 498.457 992.626 498.062 C 992.578 498.015 992.522 497.974 992.461 497.941 L 984.491 493.602 L 992.194 488.17 C 992.657 487.843 992.575 487.162 992.044 486.943 C 991.799 486.841 991.514 486.875 991.298 487.026 L 982.674 493.108 C 982.239 493.414 982.278 494.044 982.748 494.299 L 991.712 499.178 C 991.882 499.271 992.081 499.297 992.272 499.252 Z" style="fill: rgb(163, 190, 140);"/>
  <path d="M 1005.067 503.362 C 1005.14 503.346 1005.21 503.318 1005.273 503.282 C 1005.63 503.076 1005.742 502.636 1005.526 502.3 L 993.268 483.166 C 992.967 482.698 992.244 482.715 991.968 483.198 C 991.839 483.419 991.846 483.692 991.985 483.909 L 1004.243 503.041 C 1004.413 503.309 1004.748 503.439 1005.067 503.362 Z" style="fill: rgb(163, 190, 140);"/>
  <rect x="244.682" y="272.841" width="76.226" height="15.475" rx="3.264" fill="#88c0d0" style=""/>
  <rect x="205.969" y="303.794" width="153.651" height="15.475" rx="3.264" style="fill: rgb(236, 239, 244);"/>
  <rect x="205.969" y="334.746" width="153.651" height="15.475" rx="3.264" style="fill: rgb(236, 239, 244);"/>
  <path d="M 366.907 438.397 L 367.233 439.374 L 367.25 439.406 L 377.057 467.713 L 388.338 500.336 L 409.563 561.64 L 409.769 571.164 L 409.769 571.196 L 411.346 647.803 L 406.973 658.188 L 411.894 675.216 C 411.894 675.216 409.632 649.477 397.493 664.257 C 390.617 672.657 382.578 681.253 375.978 689.311 C 385.596 693.005 395.367 696.348 405.293 699.338 C 407.436 699.989 409.597 700.606 411.758 701.226 C 412.221 701.357 412.683 701.486 413.147 701.616 C 446.052 710.856 480.07 716.048 514.367 717.066 C 516.151 717.115 517.899 717.147 519.596 717.179 C 520.197 717.196 520.779 717.213 521.363 717.213 C 523.282 717.228 525.186 717.245 527.106 717.245 C 530.981 717.245 534.839 717.191 538.679 717.083 C 567.102 716.321 595.362 712.692 622.978 706.256 C 622.789 695.43 622.276 682.782 621.538 669.271 C 621.195 662.646 613.496 655.467 613.034 648.532 C 612.71 643.323 619.618 638.424 619.257 633.132 C 616.926 600.56 614.012 613.064 611.852 589.998 C 611.629 587.734 611.422 585.571 611.233 583.502 C 609.845 568.69 608.885 559.427 608.885 559.427 L 618.109 504.226 L 632.597 417.561 L 631.48 415.818 L 630.231 415.232 L 553.817 379.322 L 549.668 369.231 C 547.195 363.281 541.163 359.357 534.427 359.316 L 484.09 359.121 C 478.79 359.097 473.805 361.503 470.699 365.582 L 457.07 383.504 Z" style="fill: rgb(94, 129, 172);"/>
  <path d="M 421.169 547.999 L 409.769 571.164 L 401.985 586.986 L 388.595 653.549 L 381.892 660.305 L 376.149 636.389 L 316.036 649.061 C 314.064 638.66 315.509 649.414 314.291 638.004 C 314.634 637.678 314.993 637.352 315.353 637.026 C 316.314 636.179 317.121 635.381 317.102 634.618 C 316.417 595.257 318.474 528.271 335.653 487.688 C 338.344 481.062 341.891 474.779 346.214 468.984 C 346.556 468.543 346.883 468.105 347.209 467.664 C 355.129 457.134 360.136 446.764 367.233 439.389 L 367.233 439.374 C 367.278 439.339 367.317 439.302 367.353 439.26 C 367.379 439.248 367.402 439.232 367.422 439.21 L 416.181 414.662 L 418.272 470.465 L 419.764 510.576 Z" style="fill: rgb(94, 129, 172);"/>
  <path d="M 596.987 554.579 L 611.228 583.51 L 616.198 593.586 L 629.584 660.142 L 636.264 666.882 L 642.023 642.973 L 644.727 642.446 L 693.509 632.853 L 707.727 675.727 C 714.334 665.276 712.285 651.855 702.826 643.614 C 701.854 642.78 701.045 641.967 701.069 641.198 C 701.878 594.904 698.895 510.368 671.962 475.576 C 663.407 464.535 658.276 453.535 650.808 445.853 C 650.784 445.831 650.784 445.809 650.761 445.809 L 632.59 417.559 L 631.479 415.823 L 630.232 415.231 Z" style="fill: rgb(94, 129, 172);"/>
  <circle id="a657ec4b-47ce-4d2a-9c58-81a811696ca9" data-name="Ellipse 5" cx="386.3965" cy="267.20052" r="44.55826" fill="#ffb6b6" transform="matrix(1.502895, 0, 0, 1.426973, -70.001053, -99.352051)" style=""/>
  <path d="M 601.225 237.522 C 600.177 236.459 598.717 235.846 597.183 235.824 L 598.19 233.17 C 599.616 229.541 596.37 225.804 592.344 226.446 C 592.309 226.452 592.273 226.457 592.239 226.464 L 588.571 227.134 L 588.918 224.809 C 589.497 221.017 585.589 218.021 581.807 219.358 C 580.216 219.952 578.426 219.831 576.939 219.029 C 575.446 218.251 574.39 216.889 574.054 215.305 L 572.777 209.454 L 572.64 209.139 C 566.418 199.293 554.456 192.13 539.817 189.505 C 526.785 187.151 513.425 188.35 500.547 189.475 C 495.437 189.934 489.666 190.445 484.856 193.245 C 480.769 195.641 477.313 200.436 478.016 205.274 C 465.318 201.578 451.701 208.956 444.955 218.258 C 436.959 229.332 435.651 243.201 435.441 254.046 C 434.87 279.703 440.445 300.694 451.971 316.448 C 452.815 317.589 453.025 319.973 454.693 320.772 L 454.348 320.243 C 456.211 321.129 458.105 322.557 457.397 324.084 C 455.369 328.478 468.851 338.195 478.349 341.405 C 495.677 347.27 518.715 346.771 534.918 344.66 L 535.488 341.02 C 541.334 340.264 545.453 338.822 546.61 336.569 C 548.654 334.915 550.397 333.429 551.915 332.06 L 551.931 332.046 C 551.96 332.017 552.02 331.974 552.051 331.945 C 559.37 325.281 561.068 321.485 561.835 315.706 C 562.572 310.042 561.262 304.291 559.927 299.111 C 588.09 303.25 548.834 270.628 575.075 264.322 C 575.375 264.233 575.682 264.161 575.991 264.107 C 576.758 263.936 577.525 263.766 578.261 263.566 C 581.812 262.65 585.21 261.273 588.361 259.469 C 595.695 255.232 598.114 249.609 601.901 243.273 C 603.024 241.421 602.749 239.093 601.225 237.522 Z" style="fill: rgb(40, 40, 44);"/>
  <path d="M 747.563 559.106 C 747.547 561.602 747.517 565.098 747.397 569.422 C 747.381 570.022 747.368 570.636 747.352 571.264 C 747.157 579.212 746.962 585.875 746.645 593.282 C 746.63 593.796 746.616 594.294 746.586 594.809 C 746.164 605.14 745.503 617.17 744.361 636.219 C 742.242 671.408 738.546 641.056 734.832 653.4 C 734.652 654.014 734.457 654.741 734.277 655.597 C 733.714 658.704 732.765 661.736 731.451 664.631 C 729.481 665.744 727.453 666.813 725.456 667.884 C 719.759 670.895 713.972 673.792 708.141 676.546 C 704.865 678.086 701.574 679.599 698.268 681.055 C 697.74 681.283 697.231 681.512 696.719 681.726 C 679.789 689.162 662.338 695.484 644.493 700.646 C 641.008 701.645 637.536 702.616 634.019 703.515 C 630.351 704.485 626.685 705.398 622.972 706.254 C 595.356 712.692 567.099 716.322 538.675 717.085 C 534.843 717.2 530.981 717.242 527.102 717.242 C 525.179 717.242 523.285 717.228 521.363 717.214 C 520.776 717.214 520.19 717.2 519.603 717.186 C 517.905 717.143 516.145 717.115 514.374 717.071 C 480.076 716.056 446.057 710.862 413.153 701.616 L 411.755 701.231 C 409.592 700.605 407.442 699.992 405.293 699.335 C 395.374 696.352 385.6 693.013 375.971 689.317 C 368.623 686.505 361.359 683.491 354.179 680.269 C 354.114 680.253 354.052 680.225 354 680.184 C 352.496 679.528 350.977 678.843 349.476 678.144 C 349.28 678.044 349.07 677.943 348.861 677.844 C 343.253 675.247 337.708 672.527 332.222 669.682 C 327.609 659.622 321.117 657.694 317.087 648.848 C 315.915 646.219 315.07 643.471 314.563 640.657 C 314.563 640.628 314.548 640.6 314.548 640.556 C 314.969 645.865 312.76 631.139 314.534 640.499 C 314.517 640.329 314.503 640.142 314.487 639.93 C 314.443 639.416 314.383 638.787 314.293 638.004 C 309.138 590.214 309.469 535.561 307.229 490.526 C 307.079 487.614 306.922 484.826 306.763 482.163 C 306.717 481.277 306.659 480.408 306.599 479.552 C 306.703 479.295 306.824 479.024 306.957 478.767 C 306.987 478.694 307.022 478.622 307.065 478.552 C 307.108 478.464 307.16 478.377 307.215 478.297 C 307.244 478.253 307.29 478.195 307.319 478.153 C 307.341 478.104 307.366 478.056 307.395 478.011 C 307.53 477.81 307.68 477.596 307.844 477.396 C 307.92 477.311 307.98 477.239 308.055 477.168 C 308.107 477.095 308.168 477.029 308.237 476.97 C 308.284 476.9 308.339 476.837 308.401 476.783 C 308.462 476.726 308.521 476.656 308.596 476.585 C 308.629 476.54 308.67 476.5 308.716 476.47 C 308.837 476.339 308.968 476.22 309.108 476.113 C 309.644 475.646 310.216 475.215 310.82 474.829 C 311.031 474.7 311.257 474.572 311.467 474.429 C 312.982 473.569 314.577 472.842 316.232 472.26 C 316.803 472.06 317.374 471.873 317.99 471.675 C 318.215 471.618 318.425 471.546 318.651 471.475 C 318.982 471.375 319.312 471.276 319.657 471.203 C 321.372 470.72 323.22 470.306 325.219 469.92 C 325.46 469.877 325.715 469.834 325.971 469.777 C 326.331 469.705 326.707 469.65 327.083 469.592 C 327.593 469.507 328.119 469.42 328.646 469.334 C 333.11 468.663 338.174 468.164 343.764 467.836 C 344.291 467.807 344.816 467.779 345.343 467.751 C 345.959 467.721 346.574 467.693 347.206 467.664 C 347.731 467.636 348.273 467.622 348.814 467.608 C 349.341 467.578 349.882 467.566 350.437 467.551 C 351.955 467.509 353.519 467.466 355.112 467.436 C 359.651 467.351 364.429 467.38 369.448 467.48 C 371.779 467.538 374.154 467.594 376.588 467.693 C 376.754 467.693 376.903 467.708 377.053 467.708 C 379.173 467.779 381.306 467.864 383.501 467.979 C 385.034 468.05 386.582 468.122 388.13 468.208 C 389.588 468.293 391.06 468.378 392.55 468.479 C 393.705 468.537 394.862 468.62 396.034 468.691 C 397.027 468.763 398.02 468.836 399.01 468.893 L 400.363 468.977 C 401.099 469.035 401.837 469.078 402.588 469.15 C 404.241 469.279 405.895 469.405 407.577 469.535 C 409.244 469.677 410.944 469.82 412.642 469.963 C 414.34 470.104 416.054 470.262 417.767 470.419 C 417.947 470.433 418.113 470.447 418.278 470.461 C 419.841 470.619 421.405 470.76 422.982 470.919 C 423.344 470.947 423.718 470.976 424.079 471.019 C 425.585 471.161 427.118 471.331 428.637 471.483 C 429.102 471.531 429.564 471.577 430.034 471.625 C 431.221 471.75 432.393 471.855 433.592 471.989 C 435.171 472.159 436.778 472.317 438.341 472.516 C 439.559 472.645 440.776 472.774 441.992 472.916 C 443.903 473.131 445.842 473.359 447.779 473.601 C 448.515 473.687 449.251 473.772 449.989 473.873 C 455.52 474.529 461.111 475.258 466.791 476.013 C 475.404 477.168 484.15 478.423 492.956 479.78 C 501.778 481.135 510.65 482.567 519.574 484.075 C 521.829 484.46 524.082 484.846 526.352 485.245 C 527.374 485.432 528.395 485.616 529.417 485.801 C 531.16 486.102 532.903 486.416 534.647 486.73 C 536.39 487.043 538.133 487.357 539.877 487.685 C 541.952 488.07 544.04 488.456 546.114 488.842 C 559.775 491.411 573.362 494.15 586.617 497.019 C 588.796 497.489 590.975 497.974 593.14 498.444 C 597.467 499.401 601.756 500.371 606.005 501.357 C 607.176 501.612 608.334 501.885 609.491 502.154 C 612.377 502.84 615.262 503.525 618.102 504.223 L 618.599 504.353 C 620.688 504.837 622.732 505.337 624.776 505.85 C 629.6 507.049 634.344 508.261 639.008 509.49 C 642.104 510.303 645.165 511.125 648.191 511.958 C 652.714 513.199 657.149 514.455 661.461 515.725 C 662.529 516.04 663.595 516.353 664.647 516.654 C 667.802 517.581 670.915 518.521 673.935 519.463 C 676.34 520.205 678.684 520.963 680.999 521.719 C 683.314 522.475 685.582 523.233 687.807 523.988 C 689.236 524.472 690.647 524.986 692.06 525.472 C 694.089 526.184 696.087 526.898 698.043 527.612 C 698.642 527.827 699.229 528.055 699.815 528.269 C 700.191 528.425 700.551 528.555 700.912 528.696 C 701.618 528.967 702.339 529.225 703.031 529.495 C 703.739 529.752 704.429 530.023 705.12 530.311 C 705.796 530.566 706.488 530.838 707.148 531.107 C 707.826 531.366 708.488 531.637 709.148 531.921 C 709.705 532.136 710.246 532.364 710.771 532.592 C 711.838 533.034 712.907 533.477 713.942 533.934 C 714.454 534.163 714.964 534.377 715.476 534.604 L 716.646 535.118 C 716.812 535.205 716.978 535.275 717.144 535.347 C 717.519 535.518 717.91 535.704 718.285 535.875 C 719.157 536.26 720.014 536.674 720.856 537.059 C 721.984 537.601 723.081 538.143 724.132 538.672 C 725.199 539.213 726.237 539.756 727.227 540.284 C 727.393 540.369 727.544 540.455 727.709 540.54 C 727.934 540.655 728.16 540.783 728.384 540.896 C 729.152 541.31 729.888 541.74 730.624 542.153 C 732.067 542.994 733.435 543.823 734.712 544.65 C 734.998 544.835 735.269 545.021 735.555 545.192 C 736.5 545.834 737.402 546.464 738.244 547.105 C 738.244 547.118 738.244 547.118 738.259 547.118 C 738.546 547.319 738.816 547.532 739.087 547.733 C 739.31 547.932 739.551 548.104 739.776 548.302 C 740.558 548.944 741.28 549.56 741.942 550.187 C 742.161 550.38 742.374 550.585 742.571 550.799 C 742.66 550.869 742.741 550.946 742.813 551.03 C 743.114 551.314 743.384 551.599 743.638 551.885 C 743.679 551.925 743.714 551.968 743.745 552.013 C 744.106 552.413 744.436 552.811 744.752 553.212 C 744.902 553.412 745.066 553.611 745.202 553.811 C 745.383 554.054 745.563 554.31 745.714 554.552 C 745.848 554.753 745.968 554.967 746.089 555.167 C 746.409 555.681 746.68 556.222 746.9 556.78 C 747.071 557.158 747.205 557.55 747.306 557.949 C 747.42 558.328 747.505 558.715 747.563 559.106 Z" style="fill: rgb(129, 161, 193);"/>
  <path d="M 747.563 559.106 C 747.547 561.602 747.517 565.098 747.397 569.422 C 747.381 570.022 747.352 570.636 747.336 571.264 C 747.185 577.328 746.962 584.82 746.645 593.282 C 746.63 593.796 746.616 594.294 746.586 594.809 C 746.164 605.14 745.503 617.17 744.361 636.219 C 742.242 671.408 738.546 641.056 734.832 653.4 C 724.521 647.379 713.221 641.071 701.137 634.592 C 698.958 633.422 696.759 632.249 694.54 631.067 C 670.374 618.268 643.382 604.854 615.203 591.57 C 614.089 591.041 612.963 590.513 611.851 589.999 C 547.301 559.705 476.847 530.239 419.766 510.575 C 408.749 506.779 398.229 503.354 388.341 500.343 C 367.511 494.021 349.506 489.598 335.648 487.685 C 321.221 485.688 311.257 486.402 307.229 490.526 C 307.079 487.614 306.922 484.826 306.763 482.163 C 306.703 481.277 306.642 480.408 306.583 479.552 C 306.676 479.317 306.796 479.092 306.913 478.866 C 306.929 478.834 306.941 478.801 306.957 478.767 C 306.987 478.694 307.022 478.622 307.065 478.552 C 307.108 478.464 307.16 478.377 307.215 478.297 C 307.264 478.195 307.323 478.1 307.395 478.011 C 307.53 477.81 307.68 477.596 307.844 477.396 C 307.967 477.247 308.098 477.104 308.237 476.97 C 308.284 476.9 308.337 476.837 308.401 476.783 C 308.462 476.726 308.521 476.656 308.596 476.585 C 308.629 476.54 308.669 476.5 308.716 476.47 C 308.837 476.339 308.966 476.22 309.108 476.113 C 309.644 475.644 310.216 475.215 310.82 474.829 C 311.031 474.7 311.257 474.572 311.467 474.429 C 312.982 473.569 314.577 472.842 316.232 472.26 C 316.803 472.06 317.374 471.873 317.99 471.675 C 318.215 471.618 318.425 471.546 318.651 471.475 C 318.982 471.375 319.312 471.276 319.657 471.203 C 321.372 470.72 323.22 470.306 325.219 469.92 C 325.819 469.806 326.451 469.69 327.083 469.592 C 327.593 469.507 328.119 469.42 328.646 469.334 C 333.11 468.663 338.174 468.164 343.764 467.836 C 344.291 467.807 344.816 467.779 345.342 467.751 C 345.959 467.721 346.574 467.693 347.206 467.664 C 347.731 467.636 348.273 467.622 348.814 467.608 C 349.341 467.578 349.882 467.566 350.437 467.551 C 351.955 467.507 353.519 467.466 355.111 467.436 C 359.651 467.364 364.429 467.394 369.448 467.494 C 371.779 467.538 374.154 467.608 376.588 467.708 C 376.738 467.708 376.903 467.721 377.053 467.721 C 379.173 467.779 381.322 467.88 383.501 467.979 C 385.034 468.05 386.581 468.122 388.13 468.208 C 389.588 468.293 391.06 468.378 392.548 468.479 C 393.705 468.537 394.862 468.62 396.034 468.691 C 397.026 468.763 398.02 468.834 399.01 468.893 C 400.199 468.977 401.385 469.064 402.587 469.15 C 404.241 469.277 405.895 469.405 407.577 469.535 C 409.244 469.677 410.944 469.82 412.642 469.963 C 414.34 470.104 416.054 470.262 417.767 470.419 C 417.947 470.433 418.113 470.447 418.278 470.461 C 419.841 470.619 421.405 470.76 422.982 470.919 C 431.729 471.76 440.731 472.746 449.989 473.873 C 455.52 474.544 461.12 475.262 466.791 476.027 C 475.404 477.183 484.15 478.44 492.956 479.78 C 501.778 481.135 510.65 482.567 519.574 484.075 C 521.829 484.46 524.082 484.844 526.352 485.245 C 529.116 485.731 531.882 486.225 534.647 486.73 C 536.39 487.043 538.133 487.357 539.877 487.685 C 541.952 488.07 544.04 488.456 546.115 488.842 C 559.775 491.411 573.362 494.15 586.617 497.019 C 588.796 497.489 590.975 497.974 593.14 498.444 C 597.467 499.401 601.756 500.371 606.005 501.355 C 607.176 501.626 608.334 501.898 609.491 502.17 C 612.392 502.855 615.262 503.539 618.102 504.223 L 618.102 504.239 C 618.268 504.267 618.433 504.31 618.599 504.353 C 620.672 504.852 622.732 505.352 624.776 505.865 C 629.6 507.064 634.344 508.271 639.008 509.49 C 642.104 510.318 645.17 511.13 648.191 511.958 C 652.714 513.213 657.149 514.471 661.461 515.725 C 662.529 516.039 663.595 516.353 664.647 516.654 C 667.803 517.595 670.9 518.532 673.935 519.463 C 676.34 520.205 678.684 520.963 680.999 521.719 C 683.314 522.475 685.582 523.233 687.807 523.988 C 689.249 524.472 690.663 524.973 692.06 525.456 C 694.105 526.17 696.088 526.884 698.043 527.612 C 698.642 527.827 699.229 528.055 699.815 528.269 C 700.912 528.668 701.98 529.082 703.031 529.495 C 703.739 529.752 704.429 530.023 705.12 530.311 C 705.796 530.566 706.488 530.838 707.148 531.107 C 707.826 531.366 708.488 531.635 709.148 531.921 C 709.705 532.136 710.246 532.364 710.771 532.592 C 711.838 533.034 712.907 533.477 713.942 533.934 C 714.454 534.163 714.964 534.377 715.476 534.604 L 716.646 535.118 C 716.812 535.204 716.978 535.275 717.144 535.347 C 718.42 535.918 719.653 536.488 720.856 537.059 C 721.984 537.601 723.081 538.143 724.132 538.672 C 725.38 539.299 726.566 539.913 727.709 540.539 C 727.934 540.655 728.16 540.783 728.384 540.896 C 729.152 541.31 729.888 541.74 730.624 542.153 C 732.067 542.994 733.435 543.823 734.712 544.65 C 735.975 545.477 737.147 546.291 738.244 547.105 C 738.244 547.118 738.244 547.118 738.259 547.118 C 738.786 547.519 739.297 547.917 739.776 548.302 C 740.558 548.944 741.28 549.558 741.942 550.187 C 742.164 550.38 742.374 550.585 742.571 550.799 C 742.66 550.869 742.741 550.945 742.813 551.03 C 743.128 551.358 743.444 551.685 743.745 552.013 C 744.106 552.413 744.436 552.811 744.752 553.212 C 744.902 553.412 745.068 553.611 745.203 553.811 C 745.383 554.054 745.563 554.31 745.714 554.552 C 745.848 554.753 745.968 554.967 746.089 555.167 C 746.409 555.681 746.68 556.222 746.9 556.78 C 747.065 557.16 747.202 557.551 747.307 557.949 C 747.42 558.328 747.505 558.715 747.563 559.106 Z" opacity="0.2" style=""/>
</svg>