<?xml version="1.0" encoding="utf-8"?>
<svg viewBox="249.83 -104.341 577.888 699.864" xmlns="http://www.w3.org/2000/svg">
  <path d="M 257.129 236.508 C 266.078 251.454 286.362 254.677 299.503 243.242 L 385.76 292.714 L 382.545 241.141 L 301.127 202.069 C 285.862 186.707 259.691 193.631 254.02 214.533 C 252.001 221.974 253.125 229.918 257.129 236.508 Z" fill="#ffb8b8"/>
  <path d="M 453.32 453.518 C 427.734 489.329 428.649 549.243 435.788 614.817 L 556.762 614.817 L 562.022 602.544 L 569.035 614.817 L 682.996 614.817 C 682.996 614.817 674.23 448.258 658.451 442.998 C 642.672 437.738 453.32 453.518 453.32 453.518 Z" style="fill: rgb(129, 161, 193);" transform="matrix(1, 0, 0, 1, 43.24276, -20.297886)"/>
  <circle cx="556.762" cy="17.997" r="61.364" fill="#ffb8b8" transform="matrix(1, 0, 0, 1, 43.24276, -20.297886)"/>
  <path d="M 601.114 95.282 L 613.114 118.282 L 696.114 155.282 L 674.296 366.417 L 665.114 388.282 L 670.075 407.269 L 658.114 421.282 C 670.12 432.145 671.645 443.518 665.114 455.282 L 626.892 464.037 C 626.892 464.037 414.371 482.935 432.281 450.011 C 451.851 414.037 456.835 307.796 413.632 251.023 C 376.955 202.824 405.114 140.282 405.114 140.282 L 492.114 114.282 L 524.114 95.282 Z" style="fill: rgb(94, 129, 172);" transform="matrix(1, 0, 0, 1, 43.24276, -20.297886)"/>
  <path d="M 584.005 -71.891 C 584.595 -73.139 585.884 -73.904 587.262 -73.824 C 559.169 -75.504 529.577 -72.23 506.074 -56.749 C 500.38 -52.998 495.012 -48.524 488.816 -45.804 C 487.538 -45.229 487.33 -43.501 488.436 -42.641 L 489.117 -42.107 C 490.247 -41.22 489.994 -39.443 488.661 -38.907 C 488.611 -38.887 488.561 -38.869 488.509 -38.854 L 488.509 -38.854 C 487.135 -38.435 486.73 -36.685 487.78 -35.705 C 487.86 -35.629 487.948 -35.561 488.041 -35.501 L 493.256 -32.131 C 494.398 -31.406 494.407 -29.742 493.273 -29.005 C 492.831 -28.732 492.367 -28.497 491.886 -28.302 C 490.579 -27.811 490.257 -26.108 491.296 -25.174 C 493.555 -23.164 495.287 -20.631 496.342 -17.798 C 498.08 -13.278 498.393 -8.355 498.686 -3.522 C 500.483 -10.496 508.094 -14.602 515.284 -15.019 C 522.474 -15.436 529.486 -13.064 536.483 -11.358 C 551.723 -7.655 567.551 -7.046 583.031 -9.568 C 577.775 0.981 582.209 13.564 586.671 24.472 L 601.114 18.282 C 620.95 7.085 607.133 54.449 599.717 60.952 C 614.858 66.201 654.489 7.938 641.74 -14.163 C 635.108 -25.659 639.816 -40.487 626.777 -51.39 C 620.387 -58.117 607.628 -55.127 601.114 -60.718 C 598.55 -62.919 602.458 -68.806 598.934 -70.089 C 597.764 -70.515 584.199 -72.321 584.005 -71.891 Z" style="fill: rgb(40, 40, 44);" transform="matrix(1, 0, 0, 1, 43.24276, -20.297886)"/>
  <path d="M 480.064 120.221 C 468.804 170.211 439.924 286.931 410.624 311.342 C 408.766 313.096 406.538 314.412 404.104 315.191 C 301.114 340.282 268.114 276.282 268.114 276.282 C 268.114 276.282 295.714 262.832 296.414 236.542 L 352.074 253.812 L 400.594 144.621 L 407.734 137.961 L 407.774 137.922 Z" fill="#3f3d56" transform="matrix(1, 0, 0, 1, 43.24276, -20.297886)"/>
  <path d="M 699.655 581.854 C 712.214 569.782 710.807 549.292 696.717 539.049 L 725.589 443.896 L 676.05 458.592 L 656.228 546.698 C 644.68 565.019 657.296 588.971 678.936 589.811 C 686.641 590.11 694.131 587.234 699.655 581.854 Z" fill="#ffb8b8" transform="matrix(1, 0, 0, 1, 43.24276, -20.297886)"/>
  <path d="M 673.23 149.958 L 696.114 155.282 C 696.114 155.282 790.698 339.309 767.906 374.374 C 745.113 409.439 717.191 525.531 717.191 525.531 C 717.191 525.531 675.893 517.321 660.114 496.282 L 689.009 358.595 L 659.204 242.881 Z" style="fill: rgb(94, 129, 172);" transform="matrix(1, 0, 0, 1, 43.24276, -20.297886)"/>
  <path d="M 239.09 423.234 L 239.911 126.846 C 239.96 114.355 250.11 104.261 262.601 104.282 L 486.44 104.902 C 498.93 104.951 509.024 115.101 509.004 127.592 L 508.182 423.98 C 508.133 436.471 497.983 446.565 485.493 446.544 L 261.654 445.924 C 249.163 445.875 239.069 435.725 239.09 423.234 Z" fill="#e6e6e6" transform="matrix(1, 0, 0, 1, 43.24276, -20.297886)"/>
  <path d="M 256.508 333.76 L 257.036 143.215 C 257.081 131.517 266.587 122.063 278.285 122.083 L 470.656 122.616 C 482.354 122.661 491.808 132.167 491.789 143.865 L 491.058 407.611 C 491.012 419.309 481.506 428.762 469.808 428.743 L 350.638 428.412 C 298.531 428.209 256.422 385.867 256.508 333.76 Z" fill="#fff" transform="matrix(1, 0, 0, 1, 43.24276, -20.297886)"/>
  <path d="M 448.614 205.782 L 298.614 205.782 C 291.686 205.782 287.355 198.282 290.82 192.282 C 292.427 189.497 295.398 187.782 298.614 187.782 L 448.614 187.782 C 455.542 187.782 459.872 195.282 456.408 201.282 C 454.8 204.066 451.829 205.782 448.614 205.782 Z" style="fill: rgb(163, 190, 140);" transform="matrix(1, 0, 0, 1, 43.24276, -20.297886)"/>
  <path d="M 331.614 164.282 L 298.614 164.282 C 291.686 164.282 287.355 156.782 290.82 150.782 C 292.427 147.997 295.398 146.282 298.614 146.282 L 331.614 146.282 C 338.542 146.282 342.872 153.782 339.408 159.782 C 337.8 162.566 334.829 164.282 331.614 164.282 Z" style="fill: rgb(163, 190, 140);" transform="matrix(1, 0, 0, 1, 43.24276, -20.297886)"/>
  <path d="M 448.614 247.282 L 298.614 247.282 C 291.686 247.282 287.355 239.782 290.82 233.782 C 292.427 230.997 295.398 229.282 298.614 229.282 L 448.614 229.282 C 455.542 229.282 459.872 236.782 456.408 242.782 C 454.8 245.566 451.829 247.282 448.614 247.282 Z" style="fill: rgb(163, 190, 140);" transform="matrix(1, 0, 0, 1, 43.24276, -20.297886)"/>
  <path d="M 448.614 288.782 L 298.614 288.782 C 291.686 288.782 287.355 281.282 290.82 275.282 C 292.427 272.497 295.398 270.782 298.614 270.782 L 448.614 270.782 C 455.542 270.782 459.872 278.282 456.408 284.282 C 454.8 287.066 451.829 288.782 448.614 288.782 Z" style="fill: rgb(163, 190, 140);" transform="matrix(1, 0, 0, 1, 43.24276, -20.297886)"/>
  <circle cx="436.477" cy="362.321" r="35.811" style="fill: rgb(163, 190, 140);" transform="matrix(1, 0, 0, 1, 43.24276, -20.297886)"/>
  <path d="M 431.591 380.959 C 430.337 380.959 429.157 380.369 428.405 379.365 L 418.635 366.339 C 416.792 363.888 418.294 360.361 421.338 359.991 C 422.754 359.818 424.154 360.417 425.009 361.559 L 431.4 370.081 L 447.817 345.456 C 449.51 342.9 453.336 343.134 454.703 345.879 C 455.342 347.161 455.244 348.687 454.446 349.876 L 434.906 379.185 C 434.189 380.261 432.994 380.922 431.702 380.958 C 431.665 380.959 431.628 380.959 431.591 380.959 Z" fill="#fff" transform="matrix(1, 0, 0, 1, 43.24276, -20.297886)"/>
  <circle cx="360.114" cy="18.282" r="17" fill="#f2f2f2" transform="matrix(1, 0, 0, 1, 43.24276, -20.297886)"/>
  <circle cx="298.114" cy="507.282" r="17" fill="#f2f2f2" transform="matrix(1, 0, 0, 1, 43.24276, -20.297886)"/>
  <circle cx="689.114" cy="84.282" r="17" fill="#f2f2f2" transform="matrix(1, 0, 0, 1, 43.24276, -20.297886)"/>
</svg>